<svg width="166" height="29" viewBox="0 0 166 29" fill="none" xmlns="http://www.w3.org/2000/svg">
<path d="M1.51705 23V5.54545H13.2784V8.58807H5.20739V12.7472H12.6733V15.7898H5.20739V19.9574H13.3125V23H1.51705ZM20.3571 23.2472C19.5219 23.2472 18.7776 23.1023 18.1242 22.8125C17.4708 22.517 16.9537 22.0824 16.573 21.5085C16.198 20.929 16.0105 20.2074 16.0105 19.3438C16.0105 18.6165 16.1441 18.0057 16.4111 17.5114C16.6782 17.017 17.0418 16.6193 17.502 16.3182C17.9622 16.017 18.485 15.7898 19.0702 15.6364C19.6611 15.483 20.2804 15.375 20.9282 15.3125C21.6895 15.233 22.3032 15.1591 22.7691 15.0909C23.235 15.017 23.573 14.9091 23.7833 14.767C23.9935 14.625 24.0986 14.4148 24.0986 14.1364V14.0852C24.0986 13.5455 23.9282 13.1278 23.5872 12.8324C23.252 12.5369 22.7747 12.3892 22.1554 12.3892C21.502 12.3892 20.9821 12.5341 20.5958 12.8239C20.2094 13.108 19.9537 13.4659 19.8287 13.8977L16.4708 13.625C16.6412 12.8295 16.9764 12.142 17.4764 11.5625C17.9764 10.9773 18.6213 10.5284 19.4111 10.2159C20.2066 9.89773 21.127 9.73864 22.1725 9.73864C22.8997 9.73864 23.5958 9.82386 24.2605 9.99432C24.931 10.1648 25.5247 10.429 26.0418 10.7869C26.5645 11.1449 26.9764 11.6051 27.2776 12.1676C27.5787 12.7244 27.7293 13.392 27.7293 14.1705V23H24.2861V21.1847H24.1838C23.9736 21.5938 23.6924 21.9545 23.3401 22.267C22.9878 22.5739 22.5645 22.8153 22.0702 22.9915C21.5759 23.1619 21.0049 23.2472 20.3571 23.2472ZM21.3969 20.7415C21.931 20.7415 22.4026 20.6364 22.8117 20.4261C23.2208 20.2102 23.5418 19.9205 23.7747 19.5568C24.0077 19.1932 24.1242 18.7812 24.1242 18.321V16.9318C24.0105 17.0057 23.8543 17.0739 23.6554 17.1364C23.4622 17.1932 23.2435 17.2472 22.9992 17.2983C22.7549 17.3437 22.5105 17.3864 22.2662 17.4261C22.0219 17.4602 21.8003 17.4915 21.6014 17.5199C21.1753 17.5824 20.8032 17.6818 20.485 17.8182C20.1668 17.9545 19.9196 18.1392 19.7435 18.3722C19.5674 18.5994 19.4793 18.8835 19.4793 19.2244C19.4793 19.7188 19.6583 20.0966 20.0162 20.358C20.3799 20.6136 20.8401 20.7415 21.3969 20.7415ZM31.0261 23V9.90909H34.5459V12.1932H34.6823C34.9209 11.3807 35.3215 10.767 35.884 10.3523C36.4465 9.93182 37.0942 9.72159 37.8272 9.72159C38.009 9.72159 38.205 9.73295 38.4153 9.75568C38.6255 9.77841 38.8101 9.80966 38.9692 9.84943V13.071C38.7988 13.0199 38.563 12.9744 38.2618 12.9347C37.9607 12.8949 37.6851 12.875 37.4351 12.875C36.9011 12.875 36.4238 12.9915 36.0033 13.2244C35.5886 13.4517 35.259 13.7699 35.0147 14.179C34.7761 14.5881 34.6567 15.0597 34.6567 15.5938V23H31.0261ZM48.9457 9.90909V12.6364H41.0622V9.90909H48.9457ZM42.8519 6.77273H46.4826V18.9773C46.4826 19.3125 46.5337 19.5739 46.636 19.7614C46.7383 19.9432 46.8803 20.071 47.0622 20.1449C47.2497 20.2187 47.4656 20.2557 47.7099 20.2557C47.8803 20.2557 48.0508 20.2415 48.2212 20.2131C48.3917 20.179 48.5224 20.1534 48.6133 20.1364L49.1843 22.8381C49.0025 22.8949 48.7468 22.9602 48.4173 23.0341C48.0877 23.1136 47.6872 23.1619 47.2156 23.179C46.3406 23.2131 45.5735 23.0966 44.9144 22.8295C44.261 22.5625 43.7525 22.1477 43.3889 21.5852C43.0252 21.0227 42.8462 20.3125 42.8519 19.4545V6.77273ZM55.7027 15.4318V23H52.072V5.54545H55.6004V12.2188H55.7538C56.0493 11.446 56.5265 10.8409 57.1856 10.4034C57.8447 9.96023 58.6714 9.73864 59.6657 9.73864C60.5748 9.73864 61.3674 9.9375 62.0436 10.3352C62.7254 10.7273 63.2538 11.2926 63.6288 12.0312C64.0095 12.7642 64.197 13.642 64.1913 14.6648V23H60.5606V15.3125C60.5663 14.5057 60.3618 13.8778 59.947 13.429C59.5379 12.9801 58.964 12.7557 58.2254 12.7557C57.7311 12.7557 57.2936 12.8608 56.9129 13.071C56.5379 13.2812 56.2424 13.5881 56.0265 13.9915C55.8163 14.3892 55.7084 14.8693 55.7027 15.4318ZM73.6314 5.54545H78.1826L82.9894 17.2727H83.1939L88.0007 5.54545H92.5519V23H88.9723V11.6392H88.8274L84.3104 22.9148H81.8729L77.3558 11.5966H77.211V23H73.6314V5.54545ZM101.919 23.2557C100.595 23.2557 99.4502 22.9744 98.4843 22.4119C97.5241 21.8437 96.7826 21.054 96.2599 20.0426C95.7371 19.0256 95.4758 17.8466 95.4758 16.5057C95.4758 15.1534 95.7371 13.9716 96.2599 12.9602C96.7826 11.9432 97.5241 11.1534 98.4843 10.5909C99.4502 10.0227 100.595 9.73864 101.919 9.73864C103.243 9.73864 104.385 10.0227 105.345 10.5909C106.311 11.1534 107.055 11.9432 107.578 12.9602C108.101 13.9716 108.362 15.1534 108.362 16.5057C108.362 17.8466 108.101 19.0256 107.578 20.0426C107.055 21.054 106.311 21.8437 105.345 22.4119C104.385 22.9744 103.243 23.2557 101.919 23.2557ZM101.936 20.4432C102.538 20.4432 103.041 20.2727 103.445 19.9318C103.848 19.5852 104.152 19.1136 104.356 18.517C104.567 17.9205 104.672 17.2415 104.672 16.4801C104.672 15.7188 104.567 15.0398 104.356 14.4432C104.152 13.8466 103.848 13.375 103.445 13.0284C103.041 12.6818 102.538 12.5085 101.936 12.5085C101.328 12.5085 100.817 12.6818 100.402 13.0284C99.9928 13.375 99.6832 13.8466 99.4729 14.4432C99.2684 15.0398 99.1661 15.7188 99.1661 16.4801C99.1661 17.2415 99.2684 17.9205 99.4729 18.517C99.6832 19.1136 99.9928 19.5852 100.402 19.9318C100.817 20.2727 101.328 20.4432 101.936 20.4432ZM122.986 9.90909L118.409 23H114.318L109.741 9.90909H113.577L116.295 19.2756H116.432L119.142 9.90909H122.986ZM125.324 23V9.90909H128.954V23H125.324ZM127.147 8.22159C126.608 8.22159 126.145 8.04261 125.758 7.68466C125.378 7.32102 125.187 6.88636 125.187 6.38068C125.187 5.88068 125.378 5.4517 125.758 5.09375C126.145 4.73011 126.608 4.54829 127.147 4.54829C127.687 4.54829 128.147 4.73011 128.528 5.09375C128.914 5.4517 129.108 5.88068 129.108 6.38068C129.108 6.88636 128.914 7.32102 128.528 7.68466C128.147 8.04261 127.687 8.22159 127.147 8.22159ZM138.309 23.2557C136.962 23.2557 135.803 22.983 134.831 22.4375C133.865 21.8864 133.121 21.108 132.598 20.1023C132.076 19.0909 131.814 17.8949 131.814 16.5142C131.814 15.1676 132.076 13.9858 132.598 12.9688C133.121 11.9517 133.857 11.1591 134.806 10.5909C135.76 10.0227 136.88 9.73864 138.164 9.73864C139.027 9.73864 139.831 9.87784 140.576 10.1562C141.326 10.429 141.979 10.8409 142.536 11.392C143.098 11.9432 143.536 12.6364 143.848 13.4716C144.161 14.3011 144.317 15.2727 144.317 16.3864V17.3835H133.263V15.1335H140.899C140.899 14.6108 140.786 14.1477 140.559 13.7443C140.331 13.3409 140.016 13.0256 139.613 12.7983C139.215 12.5653 138.752 12.4489 138.223 12.4489C137.672 12.4489 137.184 12.5767 136.757 12.8324C136.337 13.0824 136.007 13.4205 135.769 13.8466C135.53 14.267 135.408 14.7358 135.402 15.2528V17.392C135.402 18.0398 135.522 18.5994 135.76 19.071C136.005 19.5426 136.348 19.9062 136.791 20.1619C137.235 20.4176 137.76 20.5455 138.368 20.5455C138.772 20.5455 139.141 20.4886 139.476 20.375C139.811 20.2614 140.098 20.0909 140.337 19.8636C140.576 19.6364 140.757 19.358 140.882 19.0284L144.24 19.25C144.07 20.0568 143.72 20.7614 143.192 21.3636C142.669 21.9602 141.993 22.4261 141.164 22.7614C140.34 23.0909 139.388 23.2557 138.309 23.2557Z" fill="url(#paint0_linear_14_47)"/>
<path fill-rule="evenodd" clip-rule="evenodd" d="M161.75 13.5L153.5 8.73683L153.5 18.2631L161.75 13.5ZM164.25 16.0981C166.25 14.9433 166.25 12.0566 164.25 10.9019L154.5 5.27273C152.5 4.11803 150 5.56141 150 7.87081L150 19.1291C150 21.4385 152.5 22.8819 154.5 21.7272L164.25 16.0981Z" fill="#4E55FF"/>
<defs>
<linearGradient id="paint0_linear_14_47" x1="-4.52462e-07" y1="5.00001" x2="144.143" y2="32.6724" gradientUnits="userSpaceOnUse">
<stop offset="0.177083" stop-color="#FF4E78"/>
<stop offset="1" stop-color="#4E55FF"/>
</linearGradient>
</defs>
</svg>
